<?xml version="1.0" encoding="UTF-8"?>
<svg version="1.1" xmlns="http://www.w3.org/2000/svg" width="2000" height="707">
<path d="M0 0 C2.20050049 1.34942627 2.20050049 1.34942627 4 4 C4.61408203 7.60314686 4.56350441 11.17932888 4.54589844 14.82714844 C4.55623611 15.92988602 4.56657379 17.0326236 4.57722473 18.16877747 C4.6067359 21.8157909 4.60815372 25.46225136 4.609375 29.109375 C4.62435095 31.63715682 4.64107685 34.16492883 4.65948486 36.69268799 C4.69876357 42.66725987 4.72038429 48.64164363 4.73345876 54.6163094 C4.74933054 61.41927263 4.78774679 68.22205018 4.82805204 75.02490568 C4.91044423 89.01654126 4.96454051 103.0081724 5 117 C5.80171631 116.25089355 6.60343262 115.50178711 7.42944336 114.72998047 C8.50357686 113.73386977 9.57788639 112.73794886 10.65234375 111.7421875 C11.17807983 111.25000732 11.70381592 110.75782715 12.2454834 110.25073242 C27.09061584 96.53083703 43.85075625 91.25753809 63.75 91.75390625 C78.64296645 92.43055323 90.51828605 97.36065885 100.7734375 108.234375 C112.13949761 122.35221808 112.44052551 138.74464764 112.44140625 155.98046875 C112.45320037 158.00442957 112.46656951 160.02838176 112.48143005 162.05232239 C112.51741504 167.35056918 112.53775828 172.64873944 112.55297852 177.94708252 C112.57792107 186.43570453 112.61770063 194.92415755 112.67487907 203.41262245 C112.69109965 206.36221498 112.69497495 209.31164481 112.69789124 212.26127625 C112.70767368 214.08198318 112.71793796 215.90268762 112.72875977 217.72338867 C112.72620682 218.53244659 112.72365387 219.34150452 112.72102356 220.17507935 C112.77738036 226.52332374 112.88075241 233.49685913 117.11328125 238.49609375 C120.75270444 240.39213966 124.16204579 240.78927913 128.1875 241.0625 C130.85088087 241.25460494 133.35543026 241.55679242 136 242 C138.47342266 245.71013399 138.38503486 247.61060262 138 252 C136.95202637 254.1893158 136.95202637 254.1893158 135 256 C132.34977774 256.40840924 130.1081763 256.55738749 127.45507812 256.53344727 C126.68892685 256.54206284 125.92277557 256.55067841 125.13340759 256.55955505 C122.59901215 256.58227199 120.06571724 256.57546659 117.53125 256.56640625 C115.77152171 256.57163912 114.01179623 256.57791435 112.2520752 256.58518982 C108.56326096 256.5956044 104.87483223 256.59101724 101.18603516 256.57641602 C96.45421397 256.55922123 91.72360623 256.58272572 86.99192047 256.61790562 C83.35792972 256.63984463 79.72423095 256.6384468 76.0901947 256.6301403 C74.34544035 256.62931896 72.60066496 256.63621735 70.85597229 256.65091133 C68.418192 256.66829501 65.98261274 256.6538698 63.54492188 256.63110352 C62.82171249 256.64279572 62.09850311 256.65448792 61.3533783 256.66653442 C59.33972168 256.62818909 59.33972168 256.62818909 56 256 C53.27240622 252.82447361 52.97275946 251.53573062 53.1875 247.3125 C54 244 54 244 56 242 C59.32592297 241.56810989 62.62468734 241.26167111 65.97070312 241.05273438 C70.01502439 240.67486532 71.68003821 240.25893596 74.94921875 237.61328125 C78.53850709 233.0395024 78.15960444 228.67921567 78.17700195 223.11328125 C78.18685875 221.74924416 78.18685875 221.74924416 78.19691467 220.35765076 C78.2166521 217.34259965 78.22831445 214.3275985 78.23828125 211.3125 C78.24235678 210.28088745 78.2464323 209.2492749 78.25063133 208.18640137 C78.27149906 202.72078654 78.28579487 197.25519684 78.29516602 191.78955078 C78.30620105 186.16198566 78.34056549 180.53481914 78.38033772 174.90739441 C78.40657744 170.56629742 78.41486463 166.22529407 78.41844749 161.88412476 C78.42329845 159.81103845 78.43486956 157.73795591 78.45348549 155.66494751 C78.74498461 140.36900173 78.74498461 140.36900173 74 126 C73.49434258 124.90691528 73.49434258 124.90691528 72.97846985 123.79174805 C71.68002743 121.41407471 70.48184898 121.04021844 68 120 C67.06285156 119.51402344 66.12570313 119.02804687 65.16015625 118.52734375 C64.13792969 118.00269531 63.11570312 117.47804688 62.0625 116.9375 C61.04285156 116.41027344 60.02320312 115.88304687 58.97265625 115.33984375 C49.09701819 110.88866917 37.98957614 112.79852138 28 116 C18.5860687 120.05561009 10.04225066 125.90258561 5 135 C4.43616819 138.1329666 4.46278998 141.20589091 4.49829102 144.38256836 C4.49288803 145.30854324 4.48748505 146.23451813 4.48191833 147.18855286 C4.46944538 150.23931166 4.48591414 153.28912403 4.50390625 156.33984375 C4.50375122 158.46684315 4.50226151 160.59384284 4.49949646 162.72084045 C4.49811306 167.17526767 4.51065995 171.62937268 4.53344727 176.08374023 C4.56181414 181.78446436 4.55909833 187.48465255 4.54635715 193.18541622 C4.53939085 197.57699636 4.54720047 201.96845336 4.55961418 206.36001778 C4.56412063 208.4614979 4.56447255 210.56299129 4.56054878 212.66447258 C4.55762773 215.60593474 4.57418725 218.5466673 4.59594727 221.48803711 C4.58919479 222.78265366 4.58919479 222.78265366 4.58230591 224.10342407 C4.64788198 229.4576917 5.36369143 233.29450335 8 238 C13.46162569 240.92587091 18.53893488 241.4091711 24.6796875 241.69140625 C27 242 27 242 29 244 C30.50777576 249.10324104 29.4680646 251.43376162 27 256 C16.75156911 256.09260014 6.50323741 256.16371415 -3.74552631 256.20724869 C-8.50424772 256.22814109 -13.26268333 256.25648872 -18.02124023 256.30175781 C-22.61185205 256.34515689 -27.20218864 256.36912465 -31.79298973 256.37950897 C-33.54614789 256.38691106 -35.29929065 256.40136539 -37.05233192 256.42292023 C-39.50437832 256.45187605 -41.9552814 256.4559594 -44.4074707 256.45410156 C-45.13539322 256.46848267 -45.86331573 256.48286377 -46.61329651 256.49768066 C-49.82374591 256.47128705 -51.54788403 256.41759406 -53.95500183 254.1942749 C-55.4686468 251.01594095 -55.31535782 248.46893606 -55 245 C-54.34 244.01 -53.68 243.02 -53 242 C-49.66034436 241.44030188 -46.40229133 241.1449519 -43.02929688 240.91601562 C-38.15978744 240.47005685 -35.32961105 239.63733851 -32 236 C-30.02579511 231.32151944 -29.71332824 227.00692364 -29.73930359 221.99855042 C-29.73547804 221.21023722 -29.73165249 220.42192403 -29.72771102 219.60972255 C-29.71742109 216.97745811 -29.72136551 214.34541342 -29.7253418 211.71313477 C-29.72099312 209.82215168 -29.71580946 207.93117036 -29.70985413 206.04019165 C-29.6964701 200.91005539 -29.69588476 195.77999282 -29.69841743 190.6498425 C-29.69948747 186.36548932 -29.69460295 182.08115102 -29.689812 177.79680103 C-29.67871904 167.68898557 -29.67827834 157.58120727 -29.68432617 147.47338867 C-29.69036769 137.04873084 -29.67804992 126.62420792 -29.6567561 116.1995731 C-29.63913958 107.24569258 -29.6331388 98.29185501 -29.63639385 89.3379578 C-29.63820664 83.99177853 -29.63557073 78.64569551 -29.62167931 73.29953194 C-29.60910468 68.27210746 -29.61104168 63.24489332 -29.62409019 58.21747208 C-29.62645625 56.37402844 -29.62372024 54.53057001 -29.61546707 52.68714333 C-29.60500042 50.16732959 -29.61309937 47.6482218 -29.6257782 45.12843323 C-29.61840391 44.40196281 -29.61102963 43.6754924 -29.60343188 42.92700773 C-29.66332293 37.25471956 -30.80701665 32.39779501 -34.71484375 28.125 C-38.48082893 26.27097652 -42.48093035 26.1756262 -46.59960938 25.828125 C-49.41536387 25.53732215 -51.56526343 25.29449897 -53.9375 23.6875 C-55.21866554 21.65270767 -55.43296066 20.39677037 -55.4375 18 C-55.45683594 17.319375 -55.47617187 16.63875 -55.49609375 15.9375 C-54.7813366 13.1460075 -53.40432077 12.52114264 -51 11 C-48.53662109 10.2956543 -48.53662109 10.2956543 -45.7734375 9.82421875 C-44.74984131 9.63883545 -43.72624512 9.45345215 -42.67163086 9.26245117 C-41.58374268 9.07271729 -40.49585449 8.8829834 -39.375 8.6875 C-30.57208077 7.06321614 -22.1986042 5.09377106 -13.83544922 1.87963867 C-9.00679152 0.08203586 -5.16834605 -0.5754558 0 0 Z " fill="#000000" transform="translate(56,223)"/>
<path d="M0 0 C18.48226635 14.86092243 28.80119535 34.35346224 31.6875 57.8046875 C33.74678712 78.86089834 28.26478794 101.33228283 15.25 118.1875 C13.85874078 119.81375118 12.44051399 121.41721303 11 123 C10.17628906 123.91652344 9.35257813 124.83304688 8.50390625 125.77734375 C-6.14398106 141.27561639 -26.4515384 150.86493337 -47.80541992 151.47436523 C-58.8082776 151.56441902 -68.55475502 150.51440247 -79 147 C-79.90363281 146.72285156 -80.80726563 146.44570313 -81.73828125 146.16015625 C-100.42581126 139.6925422 -115.3750551 123.59557395 -124.03613281 106.27563477 C-133.82801834 85.62833552 -134.59541623 62.135498 -127.8984375 40.4296875 C-119.53629329 17.60912621 -104.53583398 1.58889995 -82.875 -9.1875 C-55.56751693 -21.19892828 -23.90616725 -18.16737539 0 0 Z M-80.93359375 11.21875 C-96.55950421 31.91888085 -97.14104358 62.29880518 -94.68359375 87.20703125 C-92.41296631 103.3218726 -87.08927979 120.23980639 -73.89453125 130.75390625 C-63.1105385 137.84688292 -50.1949546 138.62199438 -37.72265625 136.421875 C-27.54855158 133.21053637 -20.23538476 125.65284383 -15.234375 116.4375 C-14.82703125 115.633125 -14.4196875 114.82875 -14 114 C-13.63390625 113.34 -13.2678125 112.68 -12.890625 112 C-0.79742696 88.18570231 -2.23187926 54.26246841 -9.875 29.5 C-14.71536237 16.19353566 -22.15515999 6.15109593 -35.203125 0.05859375 C-51.28662538 -6.02887637 -69.70371115 -1.6672567 -80.93359375 11.21875 Z " fill="#000000" transform="translate(343,331)"/>
<path d="M0 0 C9.42416432 7.4685571 15.75889038 19.19722065 19.5390625 30.37890625 C19.78398438 31.10078125 20.02890625 31.82265625 20.28125 32.56640625 C21.64023076 37.4810764 21.79599357 42.49116998 21.9140625 47.56640625 C21.94024658 48.24413086 21.96643066 48.92185547 21.9934082 49.62011719 C22.01018401 54.6826837 20.66462067 57.46612728 17.5390625 61.37890625 C11.96557215 66.58083058 5.338098 66.66569567 -1.86279297 66.60595703 C-2.79025833 66.60624908 -3.71772369 66.60654114 -4.67329407 66.60684204 C-7.72500105 66.60545376 -10.7764609 66.58991612 -13.828125 66.57421875 C-15.94947171 66.57048684 -18.07082014 66.56764071 -20.19216919 66.56564331 C-25.76526683 66.5580209 -31.3382596 66.53838431 -36.91131592 66.51623535 C-42.60232118 66.49574696 -48.29334345 66.48663519 -53.984375 66.4765625 C-65.14327514 66.45513715 -76.30209759 66.42101796 -87.4609375 66.37890625 C-87.01668672 70.02197189 -86.56014538 73.66340046 -86.1015625 77.3046875 C-85.9773291 78.32469849 -85.8530957 79.34470947 -85.72509766 80.39562988 C-83.65958326 96.6501889 -79.33047061 113.00740653 -66.8828125 124.5625 C-54.46093989 133.87890446 -40.76490055 136.45858114 -25.4609375 135.37890625 C-12.44826663 133.49278221 -2.9341354 127.27707233 5.5390625 117.37890625 C7.60375288 114.44666707 9.60870894 111.50358543 11.51953125 108.46875 C13.5390625 106.37890625 13.5390625 106.37890625 16.59765625 105.97265625 C20.43711882 106.50294059 21.99322183 107.45867724 24.5390625 110.37890625 C25.62475944 114.47114855 25.1945434 116.21461282 23.125 119.890625 C11.49596268 136.66419529 -5.03674071 149.66433556 -25.296875 153.87109375 C-48.94503695 157.28734175 -73.49445538 154.2095138 -93.03125 139.8359375 C-110.38226692 126.28672889 -119.20369044 107.41399904 -123.04296875 86.15625 C-125.75156924 61.67758949 -121.83491012 36.69071869 -106.23291016 16.81445312 C-94.34394763 2.56359125 -79.89846061 -7.87597187 -61.4609375 -11.62109375 C-60.55988281 -11.80414063 -59.65882813 -11.9871875 -58.73046875 -12.17578125 C-37.6849811 -15.04219175 -17.75949414 -11.69871439 0 0 Z M-73.6484375 13.50390625 C-81.90588243 23.32401506 -85.76919021 34.9509847 -86.99487305 47.57763672 C-87.12674263 48.92678665 -87.12674263 48.92678665 -87.26127625 50.30319214 C-87.32716446 50.9881778 -87.39305267 51.67316345 -87.4609375 52.37890625 C-79.36768586 52.44858984 -71.27456075 52.50181019 -63.18108273 52.53434277 C-59.42245277 52.54996123 -55.66402893 52.57112893 -51.90551758 52.60522461 C-48.27450615 52.63795542 -44.64369227 52.65578796 -41.01254463 52.66353798 C-39.63112849 52.669057 -38.24972248 52.67983416 -36.86839104 52.69609642 C-26.72166935 52.93219734 -26.72166935 52.93219734 -17.4609375 49.37890625 C-12.85074018 44.40474598 -12.10546634 41.20940599 -12.18359375 34.5859375 C-13.10493798 23.93208385 -17.38496543 13.72671574 -25.3984375 6.50390625 C-41.56431919 -4.71323615 -60.66984309 -0.09037101 -73.6484375 13.50390625 Z " fill="#000000" transform="translate(812.4609375,327.62109375)"/>
<path d="M0 0 C15.18 0 30.36 0 46 0 C46 76.23 46 152.46 46 231 C30.82 231 15.64 231 0 231 C0 154.77 0 78.54 0 0 Z " fill="#000000" transform="translate(1624,278)"/>
<path d="M0 0 C5.95953714 5.16301285 9.06893947 10.11056578 9.99609375 18.00390625 C10.27192206 26.42084886 9.76935386 32.77969136 3.94921875 39.05078125 C-1.17996294 43.81602987 -6.22799239 45.82412784 -13.34765625 45.6328125 C-18.18269767 44.89174073 -22.20857051 42.69504567 -25.4375 39.0625 C-25.9325 38.19625 -25.9325 38.19625 -26.4375 37.3125 C-24.87680994 33.48171531 -22.36935886 31.17106238 -19.4375 28.3125 C-16.72982441 24.25098662 -16.91534543 21.07716041 -17.4375 16.3125 C-19.1388105 11.56673912 -21.17207721 8.97838924 -25.4375 6.3125 C-37.23817111 0.95549098 -48.61573431 -0.10180446 -60.98828125 4.19921875 C-67.41343461 6.93125875 -73.32507448 9.76002523 -76.4375 16.3125 C-78.66383554 22.38432419 -77.57334182 28.91525365 -75.57421875 34.89453125 C-72.31737331 41.82232276 -65.97982761 44.73262609 -59.23046875 47.6484375 C-58.53308594 47.95137222 -57.83570313 48.25430695 -57.1171875 48.56642151 C-48.50394586 52.2328155 -39.62053329 55.09121696 -30.71923828 57.96655273 C-22.46324358 60.64606611 -14.48758837 63.54535137 -6.703125 67.41015625 C-6.05573364 67.73040268 -5.40834229 68.05064911 -4.74133301 68.38059998 C3.95854177 72.85610154 11.29330184 78.9040518 14.5625 88.3125 C14.975 89.4675 15.3875 90.6225 15.8125 91.8125 C18.46520358 104.08728291 17.18468058 117.44865737 10.796875 128.31640625 C0.43133072 143.31379808 -14.86151372 151.50470004 -32.5847168 154.90673828 C-37.89852431 155.66254043 -43.2037197 155.65110901 -48.5625 155.625 C-49.75375488 155.62008545 -50.94500977 155.6151709 -52.17236328 155.61010742 C-70.427652 155.36824159 -90.86374735 151.88625265 -104.34765625 138.40234375 C-109.75539737 131.71906664 -112.02878458 124.35906469 -111.72265625 115.80078125 C-110.92153452 108.81017107 -108.95315228 103.88645555 -103.4375 99.3125 C-102.839375 98.755625 -102.24125 98.19875 -101.625 97.625 C-96.05347184 94.28208311 -90.16621471 93.84958507 -83.84765625 94.62109375 C-79.83429063 95.77241582 -77.22332959 98.29605538 -74.4375 101.3125 C-74.76088439 104.97752303 -75.4058768 106.27771448 -77.9375 109.0625 C-81.21665387 112.78014538 -81.69390672 116.44904352 -81.4375 121.3125 C-80.48790127 127.20656106 -77.53239904 131.12471566 -72.88671875 134.76953125 C-60.88721001 142.32903037 -44.37017201 142.11166567 -30.79296875 139.65234375 C-23.32348359 137.23912547 -17.4114666 132.75102247 -13.5 125.9375 C-11.14734495 117.91079453 -10.5624904 111.01136397 -14.4375 103.3125 C-23.46531468 91.62944571 -41.48345691 88.21227252 -54.9909668 84.28613281 C-73.06100763 79.00080881 -91.60954198 72.41366833 -101.4375 55.3125 C-106.90317899 44.10085079 -106.514845 30.29031955 -102.5390625 18.69140625 C-96.72997056 5.48705188 -85.33072239 -1.57770103 -72.4375 -6.6875 C-49.46551605 -14.96195751 -20.33506379 -14.87638885 0 0 Z " fill="#000000" transform="translate(512.4375,326.6875)"/>
<path d="M0 0 C1.54677828 3.46532608 2.27467521 6.29534327 2.4140625 10.08203125 C2.47207031 11.47905273 2.47207031 11.47905273 2.53125 12.90429688 C2.5621875 13.86400391 2.593125 14.82371094 2.625 15.8125 C2.68300781 17.28106445 2.68300781 17.28106445 2.7421875 18.77929688 C2.83610816 21.18601374 2.92178201 23.59273012 3 26 C3.63164063 25.38253906 4.26328125 24.76507813 4.9140625 24.12890625 C17.96739145 11.77150406 33.59617004 0.51794681 52.22265625 0.79296875 C59.19932674 1.31302998 63.73177124 3.93497951 68.4609375 9.03125 C74.86287897 17.22053554 75.85311084 25.83278858 75 36 C73.13305256 43.17759068 70.04523311 49.38480636 63.5625 53.3125 C57.59673162 56.05473875 50.03871052 56.42628335 43.83203125 54.234375 C42.1875 53.25 42.1875 53.25 40 51 C40 47 40 47 41.9375 44.8125 C44.73398019 40.99911792 45.21471154 37.68236325 45 33 C43.5499434 28.87878651 41.96907751 25.98453875 38 24 C29.53339302 22.83791669 22.10563248 27.35881648 15.46891785 32.22143555 C13 34 13 34 10.40498352 35.53417969 C6.69322409 38.11746007 3.65135673 40.57299465 2.43587875 45.10195923 C1.52452945 51.554664 1.77794323 58.06525851 1.91796875 64.5625 C1.9290229 66.68040299 1.93606325 68.79833038 1.93928528 70.91625977 C1.9560878 75.34512201 2.00532636 79.7719499 2.08081055 84.20019531 C2.17694905 89.85924321 2.21684791 95.51680762 2.23548412 101.17658997 C2.25583054 106.59708586 2.30473876 112.01721801 2.35546875 117.4375 C2.36620454 118.97556808 2.36620454 118.97556808 2.37715721 120.54470825 C2.40266735 123.46647217 2.44851629 126.38719921 2.50073242 129.30859375 C2.50565704 130.15976776 2.51058167 131.01094177 2.51565552 131.88790894 C2.64385321 137.45820099 3.27634136 143.03978466 6 148 C11.55022856 150.42191792 17.44999954 150.3227215 23.4609375 150.55859375 C24.71777344 150.77708984 24.71777344 150.77708984 26 151 C28.47342266 154.71013399 28.38503486 156.61060262 28 161 C26.95202637 163.19030762 26.95202637 163.19030762 25 165 C22.34902637 165.40318364 20.10803188 165.54728012 17.45507812 165.51757812 C16.30585121 165.52809204 16.30585121 165.52809204 15.13340759 165.53881836 C12.59898717 165.55643445 10.06568192 165.54476354 7.53125 165.53125 C5.77152288 165.53394389 4.01179721 165.53782546 2.2520752 165.54284668 C-1.43674892 165.5487466 -5.12518573 165.54016308 -8.81396484 165.52148438 C-13.54564999 165.49869431 -18.27642769 165.51181478 -23.00807953 165.53577423 C-26.64205785 165.55021901 -30.27582053 165.54563234 -33.9098053 165.53526306 C-35.65454719 165.53259211 -37.39930857 165.53587847 -39.14402771 165.54518127 C-41.58157302 165.55532549 -44.01764291 165.53987745 -46.45507812 165.51757812 C-47.17828751 165.52567505 -47.90149689 165.53377197 -48.6466217 165.54211426 C-51.86759394 165.48744167 -53.56082771 165.4158914 -55.94812012 163.15515137 C-57.37993388 160.22156984 -57.40331846 158.22654769 -57 155 C-55.96875 152.87109375 -55.96875 152.87109375 -54 151 C-50.6188025 150.390216 -47.40119558 150.12642601 -43.98046875 149.95507812 C-40.10498141 149.641142 -38.14257874 149.11213421 -35.0546875 146.68359375 C-32.24579436 143.01494434 -31.87745566 140.15533059 -31.85955811 135.61784363 C-31.85384796 134.74738907 -31.84813782 133.87693451 -31.84225464 132.98010254 C-31.84113678 132.03300415 -31.84001892 131.08590576 -31.83886719 130.11010742 C-31.83390228 129.10639603 -31.82893738 128.10268463 -31.82382202 127.06855774 C-31.80921507 123.7475211 -31.8024009 120.42653223 -31.796875 117.10546875 C-31.79112245 114.79624938 -31.78536473 112.48703002 -31.77960205 110.17781067 C-31.76909632 105.33492816 -31.76325081 100.49206223 -31.75976562 95.64916992 C-31.75428108 89.44849031 -31.7302519 83.2480303 -31.70179367 77.04741955 C-31.68315589 72.27671165 -31.67796108 67.50605655 -31.67642975 62.73531532 C-31.67340541 60.44960644 -31.66538428 58.16389844 -31.65224457 55.87822533 C-31.63516025 52.67800632 -31.63707035 49.47832247 -31.64355469 46.27807617 C-31.6343399 45.33705048 -31.62512512 44.39602478 -31.6156311 43.42648315 C-31.65095604 37.85156357 -32.3246653 33.92591162 -35 29 C-39.31458292 25.33451363 -44.32875335 25.2817633 -49.73632812 24.828125 C-51.50303296 24.64530181 -53.25486951 24.33043891 -55 24 C-57.46324069 20.30513897 -57.38991688 18.36706908 -57 14 C-56 12.1875 -56 12.1875 -54 11 C-49.21522947 9.70978349 -44.41625947 8.6621429 -39.55566406 7.70581055 C-30.75609325 5.96620882 -22.26041214 3.72872752 -13.76269531 0.84277344 C-8.6816447 -0.80349533 -5.22995453 -1.19561795 0 0 Z " fill="#000000" transform="translate(918,314)"/>
<path d="M0 0 C2.19164944 3.28747416 2.28679386 4.48494825 2.4140625 8.32421875 C2.47207031 9.86625977 2.47207031 9.86625977 2.53125 11.43945312 C2.5621875 12.51130859 2.593125 13.58316406 2.625 14.6875 C2.68300781 16.31268555 2.68300781 16.31268555 2.7421875 17.97070312 C2.83650509 20.64696467 2.92210005 23.32321843 3 26 C3.61335205 25.4117041 4.2267041 24.8234082 4.85864258 24.21728516 C17.76589907 11.96347014 33.7701121 0.5848812 52.1796875 0.78125 C58.40435239 1.26404949 63.56946155 3.56946155 68 8 C74.65740857 17.03781919 76.28178179 25.84292549 75 37 C72.41790377 44.74628868 69.01588232 50.44734676 61.58984375 54.2265625 C56.13394365 55.85592633 49.15218683 56.29928848 43.8203125 54.1015625 C42.1875 53 42.1875 53 40 51 C40.39646776 47.63002405 41.02127706 45.97098583 43.0625 43.1875 C45.47477894 39.21891206 45.7481744 36.525103 45 32 C43.81462302 28.79948216 42.94299185 26.74092217 40.25 24.625 C32.65124605 22.51423501 27.08920888 25.4160848 20.51953125 28.92578125 C15.57781161 31.73871892 11.20368596 35.18204552 7 39 C6.30699799 39.51435608 5.61399597 40.02871216 4.8999939 40.55865479 C2.06133545 44.20611135 2.45478255 47.45468955 2.51416016 51.95605469 C2.51036346 52.86062408 2.50656677 53.76519348 2.50265503 54.69717407 C2.49524309 57.68909331 2.51664771 60.68004192 2.5390625 63.671875 C2.54144748 65.7544951 2.54235213 67.83711737 2.5418396 69.91973877 C2.54496914 74.28777513 2.5615414 78.65548364 2.58837891 83.0234375 C2.62227442 88.6097031 2.63000984 94.19560697 2.62848854 99.78196335 C2.62903388 104.08521957 2.64002863 108.38839744 2.65449142 112.6916275 C2.66083707 114.75041359 2.66479307 116.80920852 2.66627884 118.86800385 C2.67064041 121.75427676 2.68820494 124.64017544 2.70947266 127.52636719 C2.70856628 128.37029022 2.70765991 129.21421326 2.70672607 130.08370972 C2.77250296 136.22301501 2.92772938 142.61746336 7.11328125 147.4296875 C10.74479102 149.40515019 14.13794398 149.82448996 18.1875 150.125 C25.75874636 150.75874636 25.75874636 150.75874636 28 153 C28.30078125 155.05859375 28.30078125 155.05859375 28.3125 157.4375 C28.32925781 158.21996094 28.34601563 159.00242187 28.36328125 159.80859375 C28 162 28 162 26.94311523 163.61270142 C24.00575973 165.70984371 21.02410782 165.41776391 17.546875 165.38818359 C16.41227844 165.39606903 16.41227844 165.39606903 15.25476074 165.40411377 C12.75296414 165.41732414 10.25180314 165.40857232 7.75 165.3984375 C6.01269407 165.40045794 4.27538896 165.40336914 2.53808594 165.40713501 C-1.10359774 165.41155976 -4.74506072 165.40512254 -8.38671875 165.39111328 C-13.05773484 165.37402122 -17.72823384 165.38386161 -22.39923096 165.40183067 C-25.98685613 165.41266449 -29.57435845 165.40922404 -33.1619873 165.4014473 C-34.88440003 165.39944417 -36.60682387 165.4019085 -38.32922363 165.40888596 C-40.73540855 165.41649395 -43.1407528 165.40490612 -45.546875 165.38818359 C-46.26073364 165.39425629 -46.97459229 165.40032898 -47.71008301 165.40658569 C-50.57673999 165.36962382 -52.52661782 165.33304716 -54.91113281 163.65542603 C-56.59654356 161.09306319 -56.87808585 159.04785378 -57 156 C-56 153.3671875 -56 153.3671875 -54 151 C-51.23862055 150.42744616 -48.90612663 150.12026494 -46.125 150 C-41.64639286 149.8042139 -38.67776463 149.54652639 -35.0546875 146.625 C-32.39359615 143.22527873 -31.8758313 140.80779132 -31.85282898 136.61747742 C-31.84567368 135.7217099 -31.83851837 134.82594238 -31.83114624 133.9030304 C-31.82845734 132.92271347 -31.82576843 131.94239655 -31.82299805 130.93237305 C-31.81642685 129.89794067 -31.80985565 128.8635083 -31.80308533 127.79772949 C-31.78334868 124.36905853 -31.77168958 120.94043136 -31.76171875 117.51171875 C-31.75764322 116.3414747 -31.7535677 115.17123066 -31.74936867 113.96552467 C-31.72850752 107.77299806 -31.71420532 101.58049361 -31.70483398 95.38793945 C-31.69376256 88.98865456 -31.65935391 82.58971672 -31.61966228 76.19055462 C-31.59353338 71.27233732 -31.58514549 66.35420323 -31.58155251 61.43592262 C-31.57667784 59.07680731 -31.56503898 56.71769592 -31.54651451 54.3586483 C-31.52220058 51.05742135 -31.5230742 47.75709939 -31.5300293 44.45581055 C-31.51081421 42.9944442 -31.51081421 42.9944442 -31.49121094 41.5035553 C-31.53588784 35.6857087 -32.17788276 32.46033694 -36 28 C-39.87158198 25.1176328 -45.01708538 25.32750852 -49.6875 24.96484375 C-51.6640625 24.7578125 -51.6640625 24.7578125 -55 24 C-57.15579535 21.28082346 -56.99970245 19.98303988 -56.9375 16.4375 C-56 13 -56 13 -53.77197266 11.35864258 C-51.00400136 10.00196121 -48.73764012 9.34726893 -45.7109375 8.82421875 C-44.69563965 8.63875488 -43.6803418 8.45329102 -42.63427734 8.26220703 C-41.02093506 7.97772705 -41.02093506 7.97772705 -39.375 7.6875 C-30.3528621 6.01692814 -21.72367504 3.95339329 -13.10302734 0.79174805 C-8.38878181 -0.86473919 -4.98159431 -1.36774252 0 0 Z " fill="#000000" transform="translate(1066,314)"/>
<path d="M0 0 C1.31291016 -0.05607422 1.31291016 -0.05607422 2.65234375 -0.11328125 C5.0625 0.3125 5.0625 0.3125 6.7199707 1.86303711 C8.575695 5.24883124 8.24993915 8.20331108 7.953125 11.9296875 C7.88372711 13.03185104 7.88372711 13.03185104 7.81292725 14.15628052 C7.66119766 16.50130823 7.48680195 18.84405364 7.3125 21.1875 C7.20952456 22.75641832 7.10794707 24.32542906 7.0078125 25.89453125 C6.59695388 32.08258693 6.18363644 38.20099721 5.0625 44.3125 C5.82691406 44.25191406 6.59132813 44.19132812 7.37890625 44.12890625 C33.05714981 42.12037938 33.05714981 42.12037938 42.6875 42 C43.89664063 41.98324219 45.10578125 41.96648437 46.3515625 41.94921875 C47.24617187 42.06910156 48.14078125 42.18898438 49.0625 42.3125 C51.75664604 46.35371906 51.6194631 49.56620575 51.0625 54.3125 C49.5625 57.875 49.5625 57.875 48.0625 60.3125 C38.94448053 60.38097788 29.86018262 60.18109131 20.75 59.8125 C19.52087891 59.76480469 18.29175781 59.71710938 17.02539062 59.66796875 C14.03766512 59.55171484 11.05004877 59.43319607 8.0625 59.3125 C8.09979082 73.7083906 8.16009195 88.10403041 8.24640274 102.4997139 C8.28608467 109.18504163 8.31803856 115.87023136 8.33349609 122.55566406 C8.34869806 129.01381206 8.38320728 135.47160073 8.43080902 141.92958832 C8.44558619 144.386959 8.4535389 146.84438099 8.45438385 149.30179596 C8.4567662 152.75789699 8.48394953 156.21301513 8.51660156 159.66894531 C8.5115712 160.67308472 8.50654083 161.67722412 8.50135803 162.71179199 C8.62423938 171.18086539 10.26034713 179.52580694 15.375 186.4375 C22.49546352 191.40526524 29.75533474 190.69541575 38.0625 189.3125 C40.99916864 188.39082636 43.8262935 187.31867466 46.6875 186.1875 C49.71167855 185.07332895 51.89055234 184.61621881 55.0625 185.3125 C58.66566022 188.62351209 59.61520524 191.5040813 60.0625 196.3125 C46.39036006 207.73885522 29.47869241 210.6046904 12.12060547 209.52392578 C0.08502735 208.28753069 -8.49322912 201.73043658 -16.11328125 192.79296875 C-23.95036794 182.13654467 -25.25808235 169.83097867 -25.16455078 156.96606445 C-25.16484283 155.8915654 -25.16513489 154.81706635 -25.16543579 153.71000671 C-25.16405508 150.19851279 -25.14855361 146.68723759 -25.1328125 143.17578125 C-25.12907789 140.72527685 -25.12623304 138.27477096 -25.12423706 135.82426453 C-25.11663589 129.40458992 -25.09701783 122.9850072 -25.0748291 116.56536865 C-25.05429464 110.00257611 -25.04521914 103.43976859 -25.03515625 96.87695312 C-25.01376844 84.02209644 -24.98006497 71.16730313 -24.9375 58.3125 C-25.73921631 58.38106201 -26.54093262 58.44962402 -27.36694336 58.52026367 C-28.43050049 58.61025635 -29.49405762 58.70024902 -30.58984375 58.79296875 C-31.63906006 58.88215576 -32.68827637 58.97134277 -33.76928711 59.06323242 C-44.18179979 59.88246456 -44.18179979 59.88246456 -46.9375 59.3125 C-49.42674846 56.73971971 -49.91193871 55.48823386 -50.4375 51.875 C-49.9554572 48.44044506 -49.50039836 46.72535056 -46.8828125 44.421875 C-43.25958311 42.35561567 -39.15693949 41.52509579 -35.1640625 40.3984375 C-30.5884362 38.85845674 -27.4219348 36.59621851 -23.9375 33.3125 C-23.41929687 32.85746094 -22.90109375 32.40242188 -22.3671875 31.93359375 C-16.55502529 26.10621646 -14.00424615 17.78805789 -10.9375 10.3125 C-6.68431385 0.18649334 -6.68431385 0.18649334 0 0 Z " fill="#000000" transform="translate(600.9375,274.6875)"/>
<path d="M0 0 C0.64453125 0.350625 1.2890625 0.70125 1.953125 1.0625 C9.28916334 5.65549791 13.39911673 13.2535924 15.53125 21.46484375 C17.12340081 30.07572602 16.19715826 38.61481603 11.67578125 46.23046875 C6.30381235 53.74558534 -0.55834473 58.96579307 -9.375 61.75 C-19.93369706 62.7555902 -29.41546377 61.78777283 -38 55 C-44.78263811 49.04451288 -49.46759272 41.57170411 -50.3359375 32.484375 C-50.45449775 21.15001526 -48.82738248 13.12926515 -40.92578125 4.75390625 C-29.59283033 -5.56758455 -13.47826009 -7.476991 0 0 Z " fill="#000000" transform="translate(1981,329)"/>
<path d="M0 0 C0.65484375 0.41378906 1.3096875 0.82757813 1.984375 1.25390625 C2.68046875 1.67800781 3.3765625 2.10210937 4.09375 2.5390625 C10.47207028 6.84322975 14.33485471 12.4300183 17.359375 19.44140625 C19.14442595 30.33021705 18.87922077 40.17793749 12.4765625 49.43359375 C6.69140829 56.56413265 -0.73153979 62.16064014 -10.015625 63.25390625 C-19.85423521 64.14537834 -28.47230905 62.24389203 -36.19921875 55.921875 C-43.39691291 49.3123795 -47.31449688 42.63299239 -48.25390625 32.74609375 C-48.52680174 23.12293686 -45.95881488 14.58787445 -39.8515625 7.0390625 C-29.68483189 -2.84646067 -12.85987568 -6.93756451 0 0 Z " fill="#000000" transform="translate(1351.015625,327.74609375)"/>
<path d="M0 0 C2.3359375 0.1015625 2.3359375 0.1015625 5 1 C6.9140625 3.3984375 6.9140625 3.3984375 8.625 6.375 C10.80282871 10.28034826 10.80282871 10.28034826 13.7734375 13.5390625 C15 15 15 15 14.92773438 17.41918945 C14 20 14 20 11.58251953 21.51391602 C10.52661621 21.92311279 9.47071289 22.33230957 8.3828125 22.75390625 C7.2175 23.21603516 6.0521875 23.67816406 4.8515625 24.15429688 C3.62179687 24.61900391 2.39203125 25.08371094 1.125 25.5625 C-0.06609375 26.03107422 -1.2571875 26.49964844 -2.484375 26.98242188 C-9.61363037 29.77094353 -16.79316062 32.41928444 -24 35 C-23.3603833 35.47526123 -22.7207666 35.95052246 -22.06176758 36.44018555 C-13.94723028 42.51838178 -8.80852183 47.67702139 -7 58 C-6.75095212 63.54878672 -8.2782297 68.82132287 -12 73 C-19.07416483 78.2404472 -27.17841039 81.24241786 -35.375 84.25 C-37.67508724 85.10774618 -39.9745926 85.96705477 -42.2734375 86.828125 C-43.78043213 87.3835498 -43.78043213 87.3835498 -45.31787109 87.95019531 C-48.26471914 89.05698717 -48.26471914 89.05698717 -52 91 C-52 93.97 -52 96.94 -52 100 C-54.475 100.99 -54.475 100.99 -57 102 C-59.67194657 96.12171754 -62.23404284 90.19651852 -64.75 84.25 C-65.06783447 83.51724854 -65.38566895 82.78449707 -65.71313477 82.02954102 C-67.31051538 78.2173232 -68.43190903 75.21941897 -68 71 C-65.525 70.505 -65.525 70.505 -63 70 C-62.01 71.98 -61.02 73.96 -60 76 C-52.71236603 75.5976714 -46.45621741 73.17976608 -39.70825195 70.49951172 C-37.81219453 69.74987923 -35.90793577 69.02474585 -34.00195312 68.30078125 C-32.79087891 67.82511719 -31.57980469 67.34945312 -30.33203125 66.859375 C-29.23608643 66.43108398 -28.1401416 66.00279297 -27.01098633 65.56152344 C-23.6023796 63.79379064 -21.45185032 61.94771442 -19 59 C-18.28872462 53.39870634 -18.80313438 49.79529843 -22 45 C-25.8933019 41.1066981 -28.50838741 39.35535181 -34 39 C-37.47858717 39.91243672 -37.47858717 39.91243672 -41.04296875 41.45703125 C-41.69324539 41.72005539 -42.34352203 41.98307953 -43.01350403 42.2540741 C-45.07737831 43.09327538 -47.13206199 43.95287433 -49.1875 44.8125 C-50.57956045 45.37952777 -51.97213463 45.94529607 -53.36523438 46.50976562 C-60.41342977 49.30063722 -60.41342977 49.30063722 -67 53 C-67.32612375 55.17528363 -67.32612375 55.17528363 -67.125 57.5625 C-67.05405352 59.04055167 -67.00579155 60.52025793 -67 62 C-68 63 -68 63 -70.5625 63.0625 C-71.366875 63.041875 -72.17125 63.02125 -73 63 C-73.34780518 62.08504761 -73.34780518 62.08504761 -73.70263672 61.15161133 C-74.7596485 58.37173901 -75.81731806 55.59211741 -76.875 52.8125 C-77.23980469 51.85279297 -77.60460938 50.89308594 -77.98046875 49.90429688 C-78.33496094 48.97294922 -78.68945312 48.04160156 -79.0546875 47.08203125 C-79.54171143 45.80162964 -79.54171143 45.80162964 -80.03857422 44.49536133 C-80.70396803 42.76834503 -81.40902236 41.05628338 -82.14501953 39.3581543 C-83.17838277 36.50799566 -82.82115045 34.87402659 -82 32 C-79.6875 32.1875 -79.6875 32.1875 -77 33 C-75.1875 35.5625 -75.1875 35.5625 -74 38 C-66.76510443 36.60955594 -60.22032179 34.33149733 -53.38671875 31.60546875 C-52.29591507 31.17623611 -51.20511139 30.74700348 -50.08125305 30.30476379 C-46.61417778 28.9385576 -43.1508767 27.56305118 -39.6875 26.1875 C-37.37327754 25.27480553 -35.05882637 24.36269077 -32.74414062 23.45117188 C-24.85555129 20.34527713 -24.85555129 20.34527713 -16.98666382 17.19003296 C-14.87676382 16.34934559 -12.75245439 15.54440099 -10.61904907 14.76528931 C-9.52764618 14.35201385 -8.43624329 13.9387384 -7.31176758 13.51293945 C-6.31800613 13.15013382 -5.32424469 12.78732819 -4.30036926 12.41352844 C-1.77070714 11.19803817 -1.77070714 11.19803817 -1.16801453 8.51481628 C-1.05096855 6.76288968 -1 5.00583217 -1 3.25 C-1 1 -1 1 0 0 Z " fill="#000000" transform="translate(1402,420)"/>
<path d="M0 0 C9.28437085 3.98479533 13.62195456 15.19176412 17.24511719 24.03271484 C22.99471622 39.01663107 24 54.08806827 24 70 C8.82 70 -6.36 70 -22 70 C-22 47.62267946 -20.05719529 19.81952616 -3.0625 2.6875 C-2.0568379 1.77466825 -1.04207364 0.8710342 0 0 Z " fill="#000000" transform="translate(1646,187)"/>
<path d="M0 0 C2.37532107 0.9465469 4.75413265 1.88439189 7.13671875 2.8125 C8.70039185 3.44091797 8.70039185 3.44091797 10.2956543 4.08203125 C13.51503774 5.06162838 15.96886616 5.35866279 19.3125 5 C21.2479148 2.60943058 21.2479148 2.60943058 22.3125 0 C23.6325 0.33 24.9525 0.66 26.3125 1 C25.70545329 6.97333966 24.05251061 12.24673192 22 17.875 C21.55624023 19.174375 21.55624023 19.174375 21.10351562 20.5 C20.65588867 21.73363281 20.65588867 21.73363281 20.19921875 22.9921875 C19.93326904 23.73839355 19.66731934 24.48459961 19.39331055 25.25341797 C18.3125 27 18.3125 27 16.31958008 27.81298828 C14.3125 28 14.3125 28 12.3125 27 C12.6425 24.03 12.9725 21.06 13.3125 18 C12.03375 17.649375 10.755 17.29875 9.4375 16.9375 C5.84821419 15.88122446 2.38380707 14.65276908 -1.078125 13.2421875 C-1.85687988 12.92644775 -2.63563477 12.61070801 -3.43798828 12.28540039 C-4.99339772 11.64810792 -6.54412907 10.99924728 -8.08935547 10.33764648 C-13.20525537 8.24661058 -17.15170164 7.45774203 -22.6875 8 C-25.37855198 10.17574416 -27.14282928 11.91065856 -28.6875 15 C-28.9232855 17.04068634 -28.9232855 17.04068634 -28.9375 19.3125 C-28.97617188 20.45138672 -28.97617188 20.45138672 -29.015625 21.61328125 C-28.58384225 24.75398672 -27.55960812 26.43811554 -25.6875 29 C-23.03935665 30.58182721 -23.03935665 30.58182721 -19.91796875 31.67578125 C-18.78166016 32.11083984 -17.64535156 32.54589844 -16.47460938 32.99414062 C-15.28673828 33.42919922 -14.09886719 33.86425781 -12.875 34.3125 C-11.69873047 34.76689453 -10.52246094 35.22128906 -9.31054688 35.68945312 C-1.72484034 38.64446535 -1.72484034 38.64446535 6.3125 39 C8.2479148 36.60943058 8.2479148 36.60943058 9.3125 34 C10.9625 34.66 12.6125 35.32 14.3125 36 C11.45924729 44.71827218 8.37937455 53.35518532 5.3125 62 C3.6625 61.67 2.0125 61.34 0.3125 61 C0.3125 58.03 0.3125 55.06 0.3125 52 C-0.92790039 51.59676514 -2.16830078 51.19353027 -3.44628906 50.77807617 C-9.20588828 48.85720364 -14.87181217 46.70631445 -20.546875 44.55078125 C-22.81886158 43.69426656 -25.09100156 42.83815866 -27.36328125 41.98242188 C-30.91541122 40.64316288 -34.46653578 39.30146545 -38.01513672 37.95288086 C-41.46044128 36.6446906 -44.90950749 35.34688207 -48.359375 34.05078125 C-49.42089783 33.64459061 -50.48242065 33.23839996 -51.57611084 32.81990051 C-52.56774231 32.4491893 -53.55937378 32.07847809 -54.58105469 31.6965332 C-55.44881531 31.36804886 -56.31657593 31.03956451 -57.21063232 30.7011261 C-59.87482148 29.94697497 -61.93520072 29.68533487 -64.6875 30 C-66.5499438 32.40858714 -66.5499438 32.40858714 -67.6875 35 C-69.3375 34.67 -70.9875 34.34 -72.6875 34 C-72.0275 27.73 -71.3675 21.46 -70.6875 15 C-65.40935133 13.94437027 -62.95296594 14.64005467 -58.19921875 16.52734375 C-57.49602005 16.79511124 -56.79282135 17.06287872 -56.0683136 17.33876038 C-53.83247759 18.1932389 -51.60387252 19.06503982 -49.375 19.9375 C-47.85656421 20.52133945 -46.33768806 21.10403499 -44.81835938 21.68554688 C-41.10284033 23.11049485 -37.39370623 24.55101171 -33.6875 26 C-34.01057129 25.06067627 -34.33364258 24.12135254 -34.66650391 23.15356445 C-36.95272098 16.09209484 -36.25446452 9.5948308 -32.96484375 2.98046875 C-24.71224778 -9.8148406 -11.52868869 -4.63905907 0 0 Z " fill="#000000" transform="translate(1368.6875,221)"/>
<path d="M0 0 C7.72442476 5.21368638 12.77005711 11.76883238 14.58984375 20.98828125 C15.67014692 30.54107443 14.49127496 37.93061313 8.83203125 45.79296875 C3.8090608 51.8440952 -1.98804571 57.70653402 -10 59 C-21.45432059 59.94456297 -30.08651664 59.16563376 -39.25 51.75 C-46.86701563 44.55783783 -49.4806271 37.50146677 -50 27 C-49.62430085 18.60130612 -45.97974704 11.34323682 -40.33203125 5.1796875 C-28.97178718 -5.16671328 -13.6914897 -7.26654775 0 0 Z M-33 19 C-38.21696952 26.3159846 -40.97450752 31.95100158 -40 41 C-37.95045111 45.42702559 -35.28905707 48.18073969 -30.98046875 50.3671875 C-25.63343779 52.07570627 -20.52013357 50.51137762 -15.625 48.125 C-6.68492253 42.68253179 1.87786672 34.1551493 5 24 C5.85579435 19.19199176 5.5393292 16.05868324 3.3125 11.6875 C-0.61770532 6.83787637 -0.61770532 6.83787637 -6.26171875 4.6171875 C-17.93368314 4.08095636 -25.3270134 10.7889686 -33 19 Z " fill="#000000" transform="translate(1455,562)"/>
<path d="M0 0 C2.85845812 3.35868829 3.88632591 5.26743363 4.5625 9.625 C4 13 4 13 1.8918457 15.00878906 C-1.24906354 17.17149534 -4.34252996 18.69714976 -7.83203125 20.234375 C-8.46864182 20.51726379 -9.10525238 20.80015259 -9.76115417 21.09161377 C-11.77526722 21.9847265 -13.79372118 22.86749218 -15.8125 23.75 C-17.18714995 24.35739217 -18.5615022 24.96545857 -19.93554688 25.57421875 C-23.28695826 27.05728983 -26.64233934 28.53112265 -30 30 C-27.4576169 36.47979019 -24.45879669 42.10425101 -18.015625 45.33984375 C-12.43631608 47.16717555 -6.93368 46.73452346 -1.625 44.3125 C5.27591066 40.30775466 7.37420675 34.19299746 10 27 C11.65 27.33 13.3 27.66 15 28 C14.5874209 36.66416115 12.2360693 43.30911493 5.75 49.3125 C-2.42866863 55.7552149 -11.762806 57.97626221 -22 57 C-32.47359027 54.24300342 -38.05866504 48.76092765 -43.51953125 39.68359375 C-47.94197273 31.66718928 -48.42954602 21.99434638 -46.3125 13.1171875 C-43.23609862 4.73399374 -38.95442056 -0.21720914 -31.0625 -4.375 C-19.6427966 -9.62834449 -9.22951604 -8.91052355 0 0 Z M-31.53515625 3.4296875 C-35.64862773 8.25072404 -36.31676031 11.7703806 -36 18 C-35.08885464 21.32186171 -35.08885464 21.32186171 -34 24 C-28.27020668 22.32057782 -22.88732277 20.17808658 -17.5 17.625 C-16.87657715 17.34519287 -16.2531543 17.06538574 -15.61083984 16.77709961 C-12.72240476 15.36640356 -11.21588444 14.52138128 -9.96484375 11.5 C-10.02370132 7.3145726 -12.15911895 4.92019499 -15 2 C-21.10030722 -1.70802988 -26.1436239 -1.59143423 -31.53515625 3.4296875 Z " fill="#000000" transform="translate(1801,618)"/>
<path d="M0 0 C4.82468704 2.42422699 7.60182061 4.81661217 10.31640625 9.6328125 C11.47723873 13.52501551 11.70812873 15.37379787 10.37890625 19.1953125 C7.69546972 22.82584427 6.29532738 24.03453686 1.81640625 24.8203125 C-1.62109375 24.1953125 -1.62109375 24.1953125 -4.05859375 21.6953125 C-4.57421875 20.8703125 -5.08984375 20.0453125 -5.62109375 19.1953125 C-4.36567818 16.68448136 -3.12045887 16.32405804 -0.62109375 15.1953125 C-0.30376691 11.7047173 -0.15588092 9.83945334 -2.24609375 6.9453125 C-6.25415676 3.99200292 -9.8670926 2.95050419 -14.80859375 3.1953125 C-18.76598976 3.82489615 -18.76598976 3.82489615 -20.74609375 6.8828125 C-21.8329517 10.99734617 -21.41084701 12.35607925 -19.62109375 16.1953125 C-17.54372259 18.48382511 -15.21625098 20.38924793 -12.80859375 22.3203125 C-12.19177734 22.83207031 -11.57496094 23.34382812 -10.93945312 23.87109375 C-8.26989971 26.07822718 -5.57451364 28.23084851 -2.8203125 30.33203125 C0.48473144 33.13221946 2.13980674 36.06255119 3.37890625 40.1953125 C3.70653313 44.80549073 2.81049586 48.29760611 0.81640625 52.4453125 C-3.51416903 57.33108974 -6.72696468 59.84969999 -13.3828125 60.64453125 C-21.14014153 60.99571633 -27.90373927 60.37018442 -34.62109375 56.1953125 C-35.67296875 55.5971875 -36.72484375 54.9990625 -37.80859375 54.3828125 C-45.97987238 48.02737357 -45.97987238 48.02737357 -47.13671875 42.91796875 C-47.31742419 39.03925551 -46.86598612 36.66550585 -45.05859375 33.1953125 C-41.84027182 30.55463809 -39.76178297 30.1953125 -35.62109375 30.1953125 C-32.68359375 31.3828125 -32.68359375 31.3828125 -30.62109375 33.1953125 C-30.62109375 34.5153125 -30.62109375 35.8353125 -30.62109375 37.1953125 C-31.28109375 37.8346875 -31.94109375 38.4740625 -32.62109375 39.1328125 C-34.79412304 41.03257198 -34.79412304 41.03257198 -35.24609375 43.6328125 C-34.48432696 46.75605634 -33.08293069 48.15217303 -30.52734375 50.05078125 C-25.59018486 53.01510001 -21.42669639 54.48191609 -15.68359375 53.5703125 C-12.38324388 52.41471314 -12.38324388 52.41471314 -10.62109375 49.1953125 C-9.61579644 45.95652196 -9.61579644 45.95652196 -10.62109375 42.1953125 C-14.91892256 37.24099253 -20.28152802 33.43825888 -25.49609375 29.5078125 C-30.46374483 25.67236458 -33.50964318 22.13564375 -34.55859375 15.8203125 C-34.88455502 11.10579943 -34.02551433 7.27357971 -31.62109375 3.1953125 C-23.04393677 -5.38184448 -10.52073857 -4.37981256 0 0 Z " fill="#000000" transform="translate(1564.62109375,627.8046875)"/>
<path d="M0 0 C3.54794383 3.54794383 6.4947699 6.7508544 9.5 10.6875 C9.91580322 11.23204834 10.33160645 11.77659668 10.76000977 12.33764648 C16.18462979 19.49093717 21.401912 26.79872477 26.62475586 34.09985352 C27.97751444 36.0430586 27.97751444 36.0430586 29.65576172 37.82104492 C31.53605843 40.86892871 31.33980964 43.17446741 31.29296875 46.734375 C31.28172974 48.48572754 31.28172974 48.48572754 31.27026367 50.27246094 C31.24295166 51.75004883 31.21563965 53.22763672 31.1875 54.75 C31.125625 59.4525 31.06375 64.155 31 69 C20.77 69 10.54 69 0 69 C0 46.23 0 23.46 0 0 Z " fill="#000000" transform="translate(1674,451)"/>
<path d="M0 0 C0.33 0 0.66 0 1 0 C1 22.77 1 45.54 1 69 C-9.23 69 -19.46 69 -30 69 C-31.6678223 38.97919867 -31.6678223 38.97919867 -23.27050781 29.57885742 C-22.13345342 28.36814168 -20.98396043 27.1690052 -19.82324219 25.98095703 C-16.35294244 22.210468 -13.47996536 17.97277465 -10.5 13.8125 C-2.93045545 3.44881432 -2.93045545 3.44881432 0 0 Z " fill="#000000" transform="translate(1618,451)"/>
<path d="M0 0 C6.58507717 4.64682804 10.59544444 9.92451567 12.7578125 17.7109375 C13.82369574 28.28301195 12.49935805 36.11635392 6.0078125 44.5234375 C1.42311968 49.53867254 -4.76865904 52.30916983 -11.50390625 52.9140625 C-21.98907999 53.11667455 -28.44997372 50.49248693 -36.0703125 43.16796875 C-41.54239183 36.97743296 -43.33251897 29.87948359 -43.2421875 21.7109375 C-42.68221604 14.64576563 -39.91987608 9.00568287 -35.2421875 3.7109375 C-24.79004163 -5.18288844 -12.06492867 -6.93628303 0 0 Z M-32.5546875 8.9609375 C-35.44709252 13.67448642 -35.59402386 17.17793621 -34.3671875 22.5234375 C-30.69328437 31.22567809 -22.02983298 39.23162109 -13.7421875 43.5234375 C-10.16157533 44.73828806 -7.97135656 45.26634566 -4.2421875 44.7109375 C-0.33998393 42.56855123 2.38162046 40.46641342 4.7578125 36.7109375 C6.02722396 31.10191011 5.01437211 26.46056061 2.1953125 21.5234375 C-2.80881287 14.0465476 -9.45735928 6.78088509 -18.31640625 4.078125 C-24.4827783 2.97405077 -28.1926775 4.71681966 -32.5546875 8.9609375 Z " fill="#000000" transform="translate(1449.2421875,105.2890625)"/>
<path d="M0 0 C2.47862758 1.85897069 3.35014741 2.74252788 4.25 5.6875 C4.5763269 9.34236125 4.68114736 11.80251332 3.0625 15.125 C1.25 16.6875 1.25 16.6875 -1.4375 16.9375 C-2.200625 16.855 -2.96375 16.7725 -3.75 16.6875 C-4.41 15.0375 -5.07 13.3875 -5.75 11.6875 C-7.4 11.6875 -9.05 11.6875 -10.75 11.6875 C-13.34319889 16.34250456 -14.0959881 20.47553497 -12.75 25.6875 C-9.8728718 29.56011456 -6.41836783 32.57621955 -2.75 35.6875 C-1.67878906 36.6465625 -1.67878906 36.6465625 -0.5859375 37.625 C0.69836103 38.7711469 1.99753384 39.90089049 3.3125 41.01171875 C4.68543136 42.19919365 6.01550372 43.43705573 7.3125 44.70703125 C11.28371664 48.7337487 11.28371664 48.7337487 16.625 49.75 C19.35322693 48.84437242 19.35322693 48.84437242 21.25 46.6875 C23.3125 46.875 23.3125 46.875 25.25 47.6875 C25.58 48.6775 25.91 49.6675 26.25 50.6875 C25.0625 52.484375 25.0625 52.484375 23.25 54.4375 C22.60160156 55.14261719 21.95320313 55.84773437 21.28515625 56.57421875 C18.88108557 59.07057621 16.43376298 61.51724404 13.9609375 63.9453125 C11.22907984 66.7270671 8.75131241 69.69812664 6.25 72.6875 C4.6 72.3575 2.95 72.0275 1.25 71.6875 C1.86118369 68.12226181 2.87022499 65.02476069 4.25 61.6875 C-6.07656962 51.05964094 -6.07656962 51.05964094 -17.05078125 41.12109375 C-18.27119167 40.09146013 -19.45239585 39.01467871 -20.60546875 37.91015625 C-24.01812012 34.50083353 -24.01812012 34.50083353 -28.5625 33.6875 C-30.8952707 34.60003135 -30.8952707 34.60003135 -32.75 36.6875 C-35.375 36.3125 -35.375 36.3125 -37.75 35.6875 C-37.234897 30.37294522 -35.38835295 26.78126879 -32.6875 22.3125 C-32.12192383 21.35150391 -32.12192383 21.35150391 -31.54492188 20.37109375 C-30.62160383 18.80495934 -29.68694607 17.24551966 -28.75 15.6875 C-24.06908701 15.6875 -23.12898396 16.68395871 -19.75 19.6875 C-19.65203125 18.83027344 -19.5540625 17.97304688 -19.453125 17.08984375 C-17.87003872 4.98469264 -17.87003872 4.98469264 -13.75 -0.3125 C-9.01433211 -3.30344814 -4.86764268 -2.3231931 0 0 Z " fill="#000000" transform="translate(1884.75,534.3125)"/>
<path d="M0 0 C2.93423195 1.79646854 4.47205355 2.9441071 6 6 C6.35294118 12.47058824 6.35294118 12.47058824 4 16 C2.68 16 1.36 16 0 16 C-0.66 15.01 -1.32 14.02 -2 13 C-5.08365871 12.7497843 -5.08365871 12.7497843 -8 13 C-7.88465396 14.56324232 -7.75724874 16.12559683 -7.625 17.6875 C-7.55539062 18.55761719 -7.48578125 19.42773438 -7.4140625 20.32421875 C-6.94845787 23.33307885 -6.49427134 25.32699206 -5 28 C-2.60714535 29.29460689 -0.51788848 30.2221899 2.01953125 31.11328125 C2.71511642 31.37255905 3.4107016 31.63183685 4.12736511 31.89897156 C5.59771085 32.44284742 7.07141483 32.97771792 8.5480957 33.50415039 C10.80120816 34.30846903 13.04232154 35.14080058 15.28320312 35.97851562 C16.71552834 36.50428941 18.14845339 37.0284326 19.58203125 37.55078125 C20.58385185 37.92098137 20.58385185 37.92098137 21.60591125 38.29866028 C25.14325278 39.5493968 28.24578174 40.58626827 32 40 C34.35322796 37.09587454 34.35322796 37.09587454 36 34 C37.65 34.33 39.3 34.66 41 35 C40.41054142 39.18868721 39.4409435 42.88710576 37.93359375 46.8359375 C37.53076172 47.89941406 37.12792969 48.96289062 36.71289062 50.05859375 C36.29201172 51.15300781 35.87113281 52.24742187 35.4375 53.375 C35.01275391 54.49261719 34.58800781 55.61023438 34.15039062 56.76171875 C33.10520253 59.50974139 32.05493476 62.25570752 31 65 C29.35 65 27.7 65 26 65 C24.95808023 61.61376074 24.96136182 58.52573365 25 55 C18.3424569 52.3102704 11.67542115 49.64504656 5 47 C4.19578613 46.68063477 3.39157227 46.36126953 2.56298828 46.03222656 C0.39989926 45.17811939 -1.76761815 44.33667423 -3.9375 43.5 C-4.58009766 43.24524902 -5.22269531 42.99049805 -5.88476562 42.72802734 C-9.34334413 41.41122064 -12.29724531 40.42226523 -16 41 C-18.35322796 43.90412546 -18.35322796 43.90412546 -20 47 C-21.65 46.67 -23.3 46.34 -25 46 C-24.76483847 43.36819222 -24.52683352 40.73668753 -24.28515625 38.10546875 C-24.10177838 36.10840834 -23.92180917 34.11103043 -23.74609375 32.11328125 C-23.66488281 31.23027344 -23.58367187 30.34726562 -23.5 29.4375 C-23.4278125 28.63183594 -23.355625 27.82617188 -23.28125 26.99609375 C-23 25 -23 25 -22 23 C-18.87709365 23.48578543 -16.00419641 23.9986012 -13 25 C-13.22816406 24.2265625 -13.45632813 23.453125 -13.69140625 22.65625 C-15.42839894 16.36257246 -16.78649579 11.36439124 -15 5 C-11.22714222 -0.84184431 -6.44190383 -1.17414011 0 0 Z " fill="#000000" transform="translate(1935,434)"/>
<path d="M0 0 C5.16954291 3.94416977 7.107834 8.44031222 8.01953125 14.70703125 C8.42227948 19.82658082 7.32535537 23.21874945 5.14453125 27.83203125 C4.14453125 28.83203125 4.14453125 28.83203125 0.85546875 29.23828125 C-5.4206899 29.15986427 -10.70905524 26.04278553 -16.23046875 23.33203125 C-18.38270389 22.29784034 -20.53628214 21.26643835 -22.69140625 20.23828125 C-23.6354834 19.77744141 -24.57956055 19.31660156 -25.55224609 18.84179688 C-27.74161059 17.69819075 -27.74161059 17.69819075 -29.85546875 17.83203125 C-32.54326705 24.21555221 -32.91742586 30.64615992 -30.73046875 37.20703125 C-27.85882528 41.22733211 -24.50269816 43.28295478 -19.85546875 44.83203125 C-13.97914706 45.21736382 -11.1282899 44.58827867 -5.85546875 41.83203125 C-3.48046875 42.14453125 -3.48046875 42.14453125 -1.85546875 42.83203125 C-2.078125 45.1875 -2.078125 45.1875 -2.85546875 47.83203125 C-8.62153343 51.89739806 -16.01057087 52.86622922 -22.85546875 51.83203125 C-30.86863412 49.77393862 -37.44058679 45.67460398 -42.23828125 38.87109375 C-46.12016765 31.56880394 -46.10730058 22.81927572 -44.125 14.921875 C-40.63649135 5.48154344 -34.72925598 0.2617104 -25.85546875 -4.16796875 C-16.77963818 -7.08206522 -7.90116106 -4.97357296 0 0 Z M-24.33984375 6.43359375 C-25.55009868 7.86822179 -26.70782322 9.34684292 -27.85546875 10.83203125 C-25.04196779 13.64553221 -21.62890539 14.92613643 -18.04296875 16.51953125 C-17.33076172 16.85275391 -16.61855469 17.18597656 -15.88476562 17.52929688 C-12.70131742 18.9457988 -10.48944351 19.85519406 -6.96875 19.7265625 C-4.51423375 18.91601926 -4.51423375 18.91601926 -2.85546875 15.83203125 C-2.31015033 12.76676774 -2.31220982 9.89794796 -2.85546875 6.83203125 C-5.0370602 4.07633678 -6.72724369 2.39614378 -9.85546875 0.83203125 C-16.28983424 0.21334226 -19.92992747 1.67552619 -24.33984375 6.43359375 Z " fill="#000000" transform="translate(1801.85546875,50.16796875)"/>
<path d="M0 0 C1.65 0 3.3 0 5 0 C5 5.61 5 11.22 5 17 C5.99 16.67 6.98 16.34 8 16 C10.20402487 15.7501735 12.41351084 15.54662333 14.625 15.375 C15.79289062 15.27960937 16.96078125 15.18421875 18.1640625 15.0859375 C19.56785156 15.04339844 19.56785156 15.04339844 21 15 C22 16 22 16 22 23 C16.72 23 11.44 23 6 23 C6.15726563 24.67449219 6.31453125 26.34898437 6.4765625 28.07421875 C6.87285489 32.80956516 7.10358789 37.51899537 7.2109375 42.26953125 C7.23929688 43.50767578 7.26765625 44.74582031 7.296875 46.02148438 C7.34935762 48.56820339 7.39350481 51.11510663 7.4296875 53.66210938 C7.59259706 60.14794628 7.80479411 65.28451138 11 71 C16.1530834 71.10306167 20.90768553 70.89115503 26 70 C27 71 27 71 27.0625 73.5625 C27.041875 74.366875 27.02125 75.17125 27 76 C19.51605958 79.63644827 12.12103776 81.91565812 3.890625 79.33984375 C-0.95455154 76.9483143 -2.81668702 73.70252026 -5 69 C-5.9877774 65.81822101 -6.19038905 62.80679771 -6.31640625 59.484375 C-6.35838135 58.40462402 -6.40035645 57.32487305 -6.44360352 56.21240234 C-6.48283936 55.06980957 -6.5220752 53.9272168 -6.5625 52.75 C-6.6049585 51.58807129 -6.64741699 50.42614258 -6.69116211 49.22900391 C-6.99286813 40.48135037 -7.11898584 31.7520695 -7 23 C-8.27875 23.20625 -9.5575 23.4125 -10.875 23.625 C-13.0546875 23.9765625 -13.0546875 23.9765625 -15 24 C-17 22 -17 22 -17.125 19.5625 C-16 17 -16 17 -14.28515625 16.21875 C-13.59292969 16.0021875 -12.90070313 15.785625 -12.1875 15.5625 C-7.69611215 14.12685996 -6.2067068 12.24995384 -4 8 C-2.94852272 5.68390814 -1.96884784 3.35291618 -1 1 C-0.67 0.67 -0.34 0.34 0 0 Z " fill="#000000" transform="translate(1658,626)"/>
<path d="M0 0 C2.48038907 3.7205836 2.46337203 5.59796571 2 10 C0.375 12.4375 0.375 12.4375 -2 14 C-5.25 14.25 -5.25 14.25 -8 14 C-9 11 -9 11 -8.375 9 C-7.76111058 6.9545233 -7.76111058 6.9545233 -9.0625 5.25 C-11.92769878 3.40148466 -13.63196635 3.54661085 -17 4 C-19.72020519 4.93454902 -21.89265708 6.02508573 -24 8 C-25.40814405 11.43808422 -25.40814405 11.43808422 -25 15 C-22.90176478 17.7935933 -21.70934311 18.87200342 -18.23852539 19.49829102 C-16.68379517 19.50107056 -16.68379517 19.50107056 -15.09765625 19.50390625 C-13.39125977 19.53194336 -13.39125977 19.53194336 -11.65039062 19.56054688 C-9.87438477 19.56151367 -9.87438477 19.56151367 -8.0625 19.5625 C-5.71996462 19.57145562 -3.37743533 19.59311591 -1.03515625 19.62890625 C0.52126587 19.6299939 0.52126587 19.6299939 2.10913086 19.63110352 C6.68141647 20.21456129 9.23167399 22.16937729 12.3125 25.5 C14.67605953 30.40219753 14.78264478 34.64926526 14 40 C10.48697556 47.29628153 4.34038772 51.51296284 -3.07421875 54.26953125 C-8.61873775 55.65381036 -14.3631226 55.93603825 -20 55 C-22.7125395 53.18916651 -24.53670456 51.92659088 -26 49 C-26.45371143 41.85404504 -26.45371143 41.85404504 -24.9375 39 C-21.97912322 37.47309585 -19.26283401 37.81531128 -16 38 C-15 41 -15 41 -15.125 43.5625 C-15.08375 44.366875 -15.0425 45.17125 -15 46 C-11.20991318 48.52672455 -9.50802658 48.44341245 -5 48 C-0.57892161 46.38000196 2.35523838 44.96714243 5 41 C4.91832511 37.42823885 4.91832511 37.42823885 4 34 C0.5705174 31.71367827 -0.73510268 31.74979398 -4.76953125 31.7265625 C-5.90583984 31.7059375 -7.04214844 31.6853125 -8.21289062 31.6640625 C-10.60084043 31.63814877 -12.98888566 31.61984324 -15.37695312 31.609375 C-26.34855119 31.38609771 -26.34855119 31.38609771 -31 27 C-33.91168933 23.38129473 -35.36563464 19.53015325 -35 14.875 C-33.76892731 8.81433447 -30.65205811 5.25140895 -25.6875 1.75 C-17.54161006 -3.33452607 -8.5014055 -5.46518925 0 0 Z " fill="#000000" transform="translate(1555,35)"/>
<path d="M0 0 C3.91514239 0.43725817 6.42786776 1.69071806 9.625 3.9375 C10.38039063 4.46214844 11.13578125 4.98679687 11.9140625 5.52734375 C12.60242187 6.01332031 13.29078125 6.49929687 14 7 C14.99 7.66 15.98 8.32 17 9 C16.48967606 12.77639718 15.79233071 14.44722581 13 17 C14.21236328 17.23783203 14.21236328 17.23783203 15.44921875 17.48046875 C26.36743215 19.86430063 26.36743215 19.86430063 30 25 C31 26.875 31 26.875 31 29 C29.83709188 32.48872436 28.72657096 35.19558215 26.25 37.9375 C22.96640563 39.48808623 20.58093187 39.44761648 17 39 C14.5 37.25 14.5 37.25 13 35 C13.25 32.75 13.25 32.75 14 31 C15.32 30.67 16.64 30.34 18 30 C18.33 28.68 18.66 27.36 19 26 C14.40543942 23.31050112 11.30895207 22.19742093 6 23 C2.77676032 25.23645635 0.11380326 27.95313024 -2.625 30.75 C-4.09495723 32.2045381 -5.56627501 33.65770274 -7.0390625 35.109375 C-8.06435059 36.13309204 -8.06435059 36.13309204 -9.11035156 37.17749023 C-11.28848514 39.27823534 -13.62394387 41.12919718 -16 43 C-17.1576585 44.87957244 -17.1576585 44.87957244 -17 47 C-15.64599355 49.72981832 -15.64599355 49.72981832 -14 52 C-14.99 52.99 -15.98 53.98 -17 55 C-20.93816519 53.46750133 -22.81115995 51.04251038 -25.375 47.75 C-27.96389767 44.47643517 -30.49686018 41.39512207 -33.5625 38.5625 C-36 36 -36 36 -36 32 C-34.1875 31.3125 -34.1875 31.3125 -32 31 C-31.525625 31.495 -31.05125 31.99 -30.5625 32.5 C-30.046875 32.995 -29.53125 33.49 -29 34 C-24.18459485 33.79865902 -21.59063979 31.20983401 -18.3125 28 C-17.25830796 26.99947771 -16.20361202 25.9994861 -15.1484375 25 C-14.36098145 24.24589844 -14.36098145 24.24589844 -13.55761719 23.4765625 C-11.22819749 21.26836026 -8.83322588 19.13577908 -6.4375 17 C-4.95233558 15.67335067 -3.47225894 14.34095691 -2 13 C-1.40832031 12.46117187 -0.81664062 11.92234375 -0.20703125 11.3671875 C0.19128906 10.91601562 0.58960938 10.46484375 1 10 C0.80528889 8.05000871 0.80528889 8.05000871 0 6 C-0.38499891 4.34450469 -0.72793135 2.6777567 -1 1 C-0.67 0.67 -0.34 0.34 0 0 Z " fill="#000000" transform="translate(1886,116)"/>
<path d="M0 0 C2.95093901 1.97088263 4.44146458 4.35207042 6.390625 7.3046875 C7.09703125 8.35398438 7.8034375 9.40328125 8.53125 10.484375 C10.140625 13.4296875 10.140625 13.4296875 10.140625 17.4296875 C8.160625 18.4196875 6.180625 19.4096875 4.140625 20.4296875 C4.75550781 20.80480469 5.37039063 21.17992187 6.00390625 21.56640625 C14.50028478 26.9460909 14.50028478 26.9460909 16.140625 31.4296875 C16.7690275 35.828505 16.69058805 37.66307233 14.078125 41.3046875 C10.56371656 43.84702552 8.46561929 44.4296875 4.140625 44.4296875 C1.265625 43.4296875 1.265625 43.4296875 -0.859375 41.4296875 C-1.671875 37.7421875 -1.671875 37.7421875 -1.859375 34.4296875 C0.60341301 33.1982935 2.4201305 33.35809554 5.140625 33.4296875 C5.470625 32.4396875 5.800625 31.4496875 6.140625 30.4296875 C3.56277654 27.78216746 1.22414402 25.48536685 -1.859375 23.4296875 C-8.77307128 23.82361479 -15.84418449 26.9856845 -22.296875 29.3046875 C-23.28880859 29.64371094 -24.28074219 29.98273438 -25.30273438 30.33203125 C-26.24826172 30.67105469 -27.19378906 31.01007813 -28.16796875 31.359375 C-29.02189209 31.66085449 -29.87581543 31.96233398 -30.75561523 32.27294922 C-33.30786766 33.6762882 -33.92029674 34.70453181 -34.859375 37.4296875 C-35.02662237 40.59664706 -35.02662237 40.59664706 -34.859375 43.4296875 C-37.21728516 43.22558594 -37.21728516 43.22558594 -39.859375 42.4296875 C-41.17724609 40.37597656 -41.17724609 40.37597656 -42.1328125 37.6953125 C-42.48214844 36.72851562 -42.83148437 35.76171875 -43.19140625 34.765625 C-43.53558594 33.74726563 -43.87976562 32.72890625 -44.234375 31.6796875 C-44.60175781 30.67679688 -44.96914062 29.67390625 -45.34765625 28.640625 C-48.22786686 20.44561067 -48.22786686 20.44561067 -46.859375 15.4296875 C-44.984375 15.6796875 -44.984375 15.6796875 -42.859375 16.4296875 C-41.7265625 18.4765625 -41.7265625 18.4765625 -40.859375 20.4296875 C-32.63770455 19.96899045 -25.55056218 17.51976302 -17.859375 14.6796875 C-16.62058594 14.24914062 -15.38179687 13.81859375 -14.10546875 13.375 C-12.93113281 12.94445312 -11.75679687 12.51390625 -10.546875 12.0703125 C-9.47824219 11.68391602 -8.40960937 11.29751953 -7.30859375 10.89941406 C-4.6521819 9.65870784 -4.6521819 9.65870784 -4.00390625 7.01464844 C-3.88134124 4.82255659 -3.859375 2.62520313 -3.859375 0.4296875 C-1.859375 -0.5703125 -1.859375 -0.5703125 0 0 Z " fill="#000000" transform="translate(1960.859375,224.5703125)"/>
<path d="M0 0 C1.65 0 3.3 0 5 0 C5.02730408 1.56240032 5.04653226 3.1249427 5.0625 4.6875 C5.07410156 5.55761719 5.08570313 6.42773438 5.09765625 7.32421875 C5 10 5 10 4 15 C8.95 15 13.9 15 19 15 C19 16.98 19 18.96 19 21 C14.38 21 9.76 21 5 21 C4.95059071 26.49925421 4.91427605 31.99837942 4.89013672 37.49780273 C4.88007433 39.36891938 4.86642309 41.24002028 4.84912109 43.11108398 C4.82488316 45.79935591 4.81351937 48.48742006 4.8046875 51.17578125 C4.79436493 52.01337479 4.78404236 52.85096832 4.77340698 53.71394348 C4.76695383 58.65099493 4.76695383 58.65099493 7 63 C10.12557959 63.36530232 10.12557959 63.36530232 13.625 63.1875 C14.81351563 63.16042969 16.00203125 63.13335937 17.2265625 63.10546875 C18.59941406 63.05326172 18.59941406 63.05326172 20 63 C20.33 64.32 20.66 65.64 21 67 C14.85563511 70.64110512 10.14386593 71.97089453 3 71 C-2.2322277 69.2559241 -4.32310953 66.7589164 -7 62 C-8.2244823 58.32655311 -8.14798261 54.94914261 -8.125 51.125 C-8.12306641 50.34721191 -8.12113281 49.56942383 -8.11914062 48.76806641 C-8.05084679 39.16709213 -7.5293304 29.5846611 -7 20 C-9.64 20 -12.28 20 -15 20 C-15 18.35 -15 16.7 -15 15 C-14.45730469 14.74605469 -13.91460938 14.49210938 -13.35546875 14.23046875 C-12.64003906 13.88628906 -11.92460938 13.54210938 -11.1875 13.1875 C-10.47980469 12.85105469 -9.77210937 12.51460937 -9.04296875 12.16796875 C-5.35065856 10.05706866 -3.61980686 7.61407649 -1.8125 3.8125 C-1.46832031 3.09707031 -1.12414063 2.38164063 -0.76953125 1.64453125 C-0.51558594 1.10183594 -0.26164062 0.55914062 0 0 Z " fill="#000000" transform="translate(1659,1)"/>
<path d="M0 0 C15.18 0 30.36 0 46 0 C46 3.3 46 6.6 46 10 C30.82 10 15.64 10 0 10 C0 6.7 0 3.4 0 0 Z " fill="#000000" transform="translate(1624,263)"/>
</svg>
